<?xml version="1.0" standalone="no"?>
<!DOCTYPE svg PUBLIC "-//W3C//DTD SVG 20010904//EN"
 "http://www.w3.org/TR/2001/REC-SVG-20010904/DTD/svg10.dtd">
<svg version="1.0" xmlns="http://www.w3.org/2000/svg"
 width="500.000000pt" height="500.000000pt" viewBox="0 0 500.000000 500.000000"
 preserveAspectRatio="xMidYMid meet">
<metadata>
Created by potrace 1.11, written by Peter Selinger 2001-2013
</metadata>
<g transform="translate(0.000000,500.000000) scale(0.100000,-0.100000)"
fill="#000000" stroke="none">
<path d="M2553 4979 c37 -52 58 -102 53 -124 -3 -12 -28 -35 -56 -53 -48 -30
-50 -33 -50 -77 0 -50 -16 -61 -26 -17 -10 47 -12 48 -13 5 -1 -33 4 -45 19
-53 28 -15 25 -30 -7 -31 l-28 -1 30 -13 30 -13 -25 -5 -25 -4 23 -8 c18 -6
22 -15 22 -51 0 -38 -3 -44 -20 -44 -12 0 -38 9 -60 20 -49 25 -50 25 -50 -6
0 -15 -12 -38 -29 -55 -35 -34 -29 -37 19 -8 52 32 124 28 158 -8 15 -16 27
-31 27 -34 0 -18 68 -98 77 -93 7 4 8 2 4 -4 -4 -7 4 -31 18 -54 56 -98 84
-243 46 -243 -11 0 -14 -11 -12 -43 3 -42 -27 -112 -49 -112 -8 0 -28 30 -65
95 -28 50 -64 42 -84 -20 -17 -50 2 -110 40 -130 17 -9 30 -13 30 -9 0 4 7 1
15 -6 12 -10 18 -10 33 1 15 12 16 12 4 -2 -10 -14 -9 -19 12 -32 13 -9 31
-31 40 -48 l16 -32 -56 6 -57 6 33 -32 33 -32 -32 -3 c-18 -2 -35 -10 -38 -18
-3 -8 -9 -14 -15 -14 -5 0 -6 5 -3 10 4 7 -10 9 -42 6 -26 -2 -56 -5 -67 -5
-16 -1 -17 -3 -5 -18 11 -15 10 -15 -8 1 -20 17 -23 17 -29 2 -3 -9 -13 -16
-22 -16 -13 0 -12 3 4 15 10 8 15 15 9 16 -5 1 -21 3 -35 4 -47 6 -75 12 -100
23 -44 19 -65 25 -73 23 -5 -1 -6 2 -3 7 6 10 -51 72 -65 72 -27 0 -38 -82
-18 -139 12 -34 99 -103 99 -79 1 7 8 -5 16 -27 9 -22 15 -50 15 -62 0 -13 2
-23 6 -23 3 0 34 26 68 58 83 77 96 87 125 88 82 5 94 6 82 11 -6 2 -10 9 -7
13 3 5 12 7 20 4 8 -4 12 -10 9 -15 -3 -5 16 -9 43 -9 86 0 92 -5 90 -65 -1
-29 -4 -49 -7 -44 -3 5 -13 -26 -23 -69 -21 -95 -22 -287 -2 -326 9 -17 10
-24 3 -20 -7 5 -9 2 -6 -8 4 -8 9 -40 13 -71 5 -42 11 -54 21 -50 8 3 14 -1
14 -10 0 -8 -5 -17 -10 -19 -6 -2 -11 -40 -13 -84 -1 -45 -5 -80 -9 -77 -5 2
-8 -4 -8 -14 0 -38 -32 -139 -49 -156 -17 -18 -19 -17 -60 29 -33 38 -41 54
-42 88 0 47 -6 37 -33 -56 -26 -90 -83 -122 -139 -78 -32 25 -39 15 -37 -53 2
-28 0 -59 -3 -67 -3 -8 -8 -31 -10 -52 -5 -33 -4 -36 18 -33 13 1 23 -1 22 -5
-1 -4 13 -19 31 -35 18 -15 40 -41 49 -59 13 -25 50 -171 67 -261 1 -11 9 -47
16 -80 8 -33 14 -63 14 -67 1 -3 4 -9 7 -12 3 -4 9 24 13 61 13 132 47 348 56
357 5 5 14 -9 21 -33 7 -22 15 -41 19 -41 3 0 7 -40 9 -89 2 -71 -3 -107 -24
-180 -15 -50 -24 -95 -21 -100 4 -5 1 -11 -4 -13 -6 -2 -13 -36 -17 -76 -5
-58 -3 -72 8 -72 12 0 12 -2 0 -9 -34 -22 55 -141 132 -177 61 -28 78 -29 118
-8 41 21 35 50 -17 89 -58 42 -69 85 -69 260 0 135 1 144 36 245 43 125 48
190 23 353 -19 134 -16 174 31 377 34 146 36 162 31 281 -6 163 -17 278 -26
284 -4 2 -5 28 -2 56 3 37 1 54 -9 60 -9 6 -10 9 -2 9 7 0 19 15 28 33 9 17
33 44 55 59 55 38 69 64 76 143 4 39 11 81 15 94 8 20 13 73 22 221 1 14 6 28
11 31 12 10 30 150 23 181 -11 41 -51 82 -116 116 -43 23 -61 29 -64 20 -4 -9
-6 -7 -6 3 -1 9 -29 35 -63 58 -138 91 -150 116 -100 212 25 49 27 62 27 169
0 97 -3 121 -21 155 -21 39 -55 66 -104 80 -24 8 -24 7 -7 -16z m211 -774 c-4
-8 -8 -15 -10 -15 -2 0 -4 7 -4 15 0 8 4 15 10 15 5 0 7 -7 4 -15z m-642 -577
c-7 -7 -12 -8 -12 -2 0 14 12 26 19 19 2 -3 -1 -11 -7 -17z m168 -53 c0 -2 -7
-5 -15 -9 -9 -3 -15 0 -15 9 0 9 6 12 15 9 8 -4 15 -7 15 -9z m12 -77 c-7 -7
-12 -8 -12 -2 0 14 12 26 19 19 2 -3 -1 -11 -7 -17z m-32 -27 c0 -6 -4 -13
-10 -16 -5 -3 -10 1 -10 9 0 9 5 16 10 16 6 0 10 -4 10 -9z m510 -145 c0 -3
-4 -8 -10 -11 -5 -3 -10 -1 -10 4 0 6 5 11 10 11 6 0 10 -2 10 -4z m-60 -141
c7 -8 9 -15 6 -15 -4 0 -14 7 -22 15 -9 8 -11 15 -6 15 5 0 15 -7 22 -15z
m-193 -751 c-3 -3 -12 -4 -19 -1 -8 3 -5 6 6 6 11 1 17 -2 13 -5z m143 -54 c0
-5 -5 -10 -11 -10 -5 0 -7 5 -4 10 3 6 8 10 11 10 2 0 4 -4 4 -10z"/>
<path d="M2396 4812 c16 -14 64 -32 64 -24 0 16 -25 32 -49 32 -14 0 -21 -4
-15 -8z"/>
<path d="M2096 4025 c6 -65 18 -128 34 -171 l11 -27 40 41 c22 23 71 61 109
84 39 24 70 45 70 48 0 3 -39 5 -87 5 -100 0 -147 15 -168 54 -13 24 -13 22
-9 -34z"/>
<path d="M2212 3333 c1 -16 6 -31 12 -35 5 -3 2 -13 -7 -23 -10 -9 -17 -25
-17 -36 0 -19 3 -18 36 9 30 25 41 29 65 22 16 -5 29 -5 29 0 0 18 -42 80 -51
74 -5 -3 -9 0 -9 5 0 6 -13 11 -30 11 -26 0 -30 -3 -28 -27z"/>
<path d="M2441 1504 c-41 -77 -98 -92 -177 -48 -37 21 -48 23 -55 13 -24 -39
13 -79 74 -79 18 0 42 -7 53 -15 30 -22 51 -18 92 20 47 42 80 109 66 133 -18
28 -28 23 -53 -24z"/>
<path d="M1838 1403 c-3 -4 -3 -25 -1 -45 5 -34 9 -38 52 -52 172 -58 379 -80
683 -73 252 5 404 25 528 69 61 22 65 25 72 62 5 21 7 41 5 43 -2 2 -51 -8
-108 -22 -233 -55 -585 -75 -839 -46 -91 10 -302 49 -366 67 -12 3 -24 2 -26
-3z"/>
<path d="M1734 1188 c-11 -18 21 -37 114 -67 181 -60 401 -91 633 -91 l130 0
43 -45 c67 -68 106 -167 120 -302 l7 -61 -45 -17 c-25 -10 -43 -21 -40 -26 7
-12 221 -11 229 1 3 5 11 7 19 4 15 -6 140 38 218 77 l57 29 3 214 c3 207 4
215 27 246 31 42 17 55 -40 35 -89 -32 -285 -76 -420 -95 -121 -17 -463 -23
-574 -10 -136 16 -270 45 -382 84 -54 19 -96 29 -99 24z"/>
<path d="M1774 659 c-21 -34 126 -107 267 -133 169 -31 599 -50 599 -26 0 6 5
10 11 10 5 0 7 -5 3 -11 -4 -7 0 -9 12 -6 11 3 42 7 69 8 28 1 56 7 63 12 7 6
12 6 12 0 0 -13 155 8 235 32 104 30 192 83 182 110 -5 12 -14 10 -54 -15 -45
-29 -136 -67 -178 -76 -11 -2 -58 -9 -105 -14 -47 -6 -98 -13 -115 -15 -63 -9
-514 -5 -595 5 -175 21 -282 53 -367 110 -23 15 -33 18 -39 9z"/>
<path d="M3205 581 c-69 -42 -106 -57 -192 -79 l-61 -15 16 -33 c31 -66 -19
-145 -108 -171 -33 -10 -31 -11 31 -12 59 -1 90 3 189 24 61 12 150 50 146 61
-3 7 2 10 14 7 11 -3 48 11 87 32 167 92 172 113 44 179 -49 25 -93 46 -98 45
-4 0 -35 -17 -68 -38z"/>
<path d="M2224 462 c-17 -12 -55 -79 -60 -106 -3 -21 1 -27 23 -33 16 -5 164
-8 330 -8 363 0 357 -2 301 92 l-34 58 -232 0 c-145 0 -234 -4 -236 -10 -3 -5
-5 -4 -5 3 -1 13 -69 17 -87 4z"/>
<path d="M1560 415 c0 -21 71 -71 159 -112 174 -82 441 -125 776 -125 299 0
506 25 685 83 89 29 211 93 245 129 25 26 26 30 11 36 -11 4 -27 -2 -44 -19
-94 -87 -347 -162 -642 -188 -174 -15 -509 -6 -650 17 -58 10 -117 17 -132 17
-16 0 -28 3 -28 7 0 4 -12 10 -27 13 -68 14 -211 74 -271 113 -70 48 -82 52
-82 29z"/>
<path d="M3355 293 c-182 -98 -377 -139 -747 -159 l-118 -6 -30 -53 c-16 -29
-30 -58 -30 -64 0 -16 220 -14 400 4 159 15 273 36 365 67 71 23 221 96 236
114 5 7 9 41 7 76 l-3 64 -80 -43z"/>
</g>
</svg>
